<?xml version="1.0" standalone="no"?>
<!DOCTYPE svg PUBLIC "-//W3C//DTD SVG 20010904//EN"
 "http://www.w3.org/TR/2001/REC-SVG-20010904/DTD/svg10.dtd">
<svg version="1.0" xmlns="http://www.w3.org/2000/svg"
 width="720.000000pt" height="720.000000pt" viewBox="0 0 720.000000 720.000000"
 preserveAspectRatio="xMidYMid meet">
<metadata>
Created by potrace 1.14, written by Peter Selinger 2001-2017
</metadata>
<g transform="translate(0.000000,720.000000) scale(0.100000,-0.100000)"
fill="#000000" stroke="none">
<path d="M3375 7150 c-218 -12 -459 -50 -655 -102 -41 -11 -88 -24 -105 -28
-16 -4 -86 -26 -154 -49 -885 -297 -1629 -946 -2048 -1786 -263 -527 -386
-1086 -370 -1685 9 -302 37 -514 107 -785 315 -1224 1241 -2183 2450 -2538 76
-22 119 -33 265 -67 313 -71 771 -93 1095 -51 41 5 77 8 81 5 4 -2 10 0 13 4
3 5 42 12 88 16 45 4 87 11 92 15 6 5 38 11 70 15 33 4 64 11 70 15 6 5 37 12
69 16 31 4 59 11 62 15 3 5 24 11 48 15 23 4 47 11 52 15 6 4 36 14 68 21 32
7 60 16 63 21 3 4 13 8 22 8 9 0 30 7 46 15 15 8 33 15 40 15 6 1 29 9 51 20
22 11 45 19 52 20 6 0 24 6 40 14 15 8 91 45 168 82 77 38 182 93 233 124 51
30 101 60 110 65 49 29 163 109 174 123 9 11 13 60 14 171 0 135 -2 160 -18
183 -10 14 -18 33 -18 43 0 9 -6 28 -14 43 -7 15 -19 54 -26 87 -20 99 -78
277 -155 480 -15 39 -32 84 -39 102 -7 18 -19 40 -27 50 -21 26 -46 82 -58
128 -14 51 -14 142 -1 150 6 3 10 14 10 23 0 9 11 40 25 67 13 28 25 62 25 78
0 15 5 27 10 27 6 0 10 14 10 31 0 35 19 109 32 124 4 5 8 88 8 185 1 96 4
194 9 217 7 36 1 190 -13 353 -4 47 -1 61 21 95 38 57 38 144 2 198 -22 31
-26 46 -21 82 2 25 0 51 -6 58 -11 13 -21 62 -43 202 -13 83 -52 144 -114 174
-33 17 -50 19 -98 12 -31 -4 -60 -9 -62 -10 -23 -10 -74 -30 -93 -36 -22 -6
-23 -5 -17 17 4 12 14 32 21 43 23 32 17 43 -23 43 -21 0 -55 1 -75 2 -24 1
-50 -6 -73 -20 -39 -24 -47 -14 -12 17 35 33 128 93 143 93 8 0 14 5 14 11 0
14 -137 4 -155 -11 -7 -6 -38 -12 -69 -15 -32 -3 -62 -7 -67 -10 -5 -4 -9 -2
-9 3 0 6 -14 6 -37 0 -84 -22 -90 -21 -137 11 -24 17 -51 31 -59 31 -9 0 -17
5 -19 11 -2 6 -20 17 -41 24 -36 12 -38 12 -53 -14 -14 -23 -23 -27 -72 -28
-66 -3 -89 -6 -98 -16 -12 -11 -50 -8 -101 9 -44 15 -48 15 -60 -1 -9 -14 -16
-15 -25 -7 -8 6 -27 10 -44 10 -32 -1 -110 36 -131 62 -7 8 -11 20 -8 27 5 16
-12 27 -20 13 -9 -15 -35 7 -35 30 0 10 -13 23 -30 30 -16 7 -30 19 -30 26 0
20 -57 77 -69 69 -6 -3 -11 1 -11 10 0 9 3 14 8 12 4 -3 7 10 7 28 0 18 -4 33
-10 32 -5 -1 -9 13 -7 31 1 17 -2 32 -8 32 -5 0 -10 9 -10 19 0 11 -4 23 -10
26 -5 3 -14 20 -18 38 -5 18 -14 31 -21 29 -6 -1 -11 1 -12 5 0 5 -3 35 -5 68
-3 33 -9 62 -14 65 -5 3 -13 17 -19 32 -14 36 14 88 59 111 35 17 35 17 58 -9
19 -21 29 -25 55 -20 18 3 59 1 92 -5 145 -25 158 -26 219 -5 81 26 99 37 131
74 30 36 32 55 15 125 -10 39 -16 48 -38 53 -15 3 -41 10 -59 15 -17 6 -38 9
-45 8 -32 -4 -39 2 -36 29 3 23 8 27 41 30 40 3 74 -16 144 -81 19 -18 36 -26
44 -22 8 5 10 4 5 -3 -9 -15 9 -15 34 -2 19 10 39 -3 21 -14 -5 -3 -12 -25
-15 -48 -5 -32 -2 -52 12 -78 54 -103 79 -130 117 -130 11 0 15 5 12 15 -4 8
-2 17 4 20 5 4 7 11 4 16 -8 12 38 12 51 -1 6 -6 18 -8 27 -4 27 10 21 61 -10
90 -30 28 -29 31 12 36 l30 3 -4 -99 c-2 -71 0 -97 8 -92 6 4 11 14 11 23 0
27 24 87 38 97 8 4 19 20 25 36 14 33 93 120 108 120 7 0 9 9 6 22 -3 11 0 33
7 47 7 14 16 42 20 60 3 19 14 46 23 60 21 33 21 110 0 153 -9 18 -19 45 -22
61 -4 19 -12 27 -26 27 -14 0 -19 5 -16 14 8 20 -47 66 -71 59 -22 -5 -52 29
-52 59 0 22 -25 23 -62 4 -25 -13 -27 -13 -38 15 -16 39 -38 55 -52 41 -16
-16 -50 4 -43 26 9 29 -95 109 -153 118 -26 3 -52 11 -59 16 -6 5 -25 11 -41
13 -32 4 -103 42 -115 62 -4 7 -18 13 -30 13 -12 0 -31 7 -41 15 -11 8 -30 15
-42 15 -12 0 -29 11 -38 25 -19 29 -40 25 -73 -14 -11 -14 -25 -23 -29 -18 -4
4 -2 13 4 19 7 7 12 20 12 29 0 16 18 29 49 35 8 1 28 -3 45 -10 17 -7 38 -12
47 -11 12 2 15 -3 12 -16 -4 -15 0 -19 19 -19 13 0 29 -5 35 -11 9 -9 11 116
10 502 l-2 514 -36 1 c-19 0 -39 3 -45 6 -17 10 -376 16 -509 8z m295 -1095
c0 -8 -7 -15 -16 -15 -14 0 -14 3 -4 15 7 8 14 15 16 15 2 0 4 -7 4 -15z
m-105 -25 c8 -13 -35 -13 -55 0 -11 7 -7 10 17 10 17 0 35 -4 38 -10z m-160
-30 c-3 -5 -14 -10 -23 -10 -15 0 -15 2 -2 10 20 13 33 13 25 0z m955 -760 c0
-5 -4 -10 -9 -10 -6 0 -13 5 -16 10 -3 6 1 10 9 10 9 0 16 -4 16 -10z m-441
-89 c17 -11 17 -11 -101 -32 -37 -7 -70 -10 -74 -6 -11 11 7 27 31 27 13 0 27
5 30 10 8 12 95 13 114 1z m-44 -91 c3 -5 -1 -10 -9 -10 -9 0 -16 5 -16 10 0
6 4 10 9 10 6 0 13 -4 16 -10z m20 -39 c-20 -18 -63 -21 -69 -6 -4 12 3 15 36
15 25 0 38 -4 33 -9z m-645 -292 c0 -11 -4 -17 -10 -14 -5 3 -10 13 -10 21 0
8 5 14 10 14 6 0 10 -9 10 -21z m-230 -40 c0 -5 -4 -9 -10 -9 -5 0 -10 7 -10
16 0 8 5 12 10 9 6 -3 10 -10 10 -16z m280 -16 c0 -13 -3 -13 -15 -3 -8 7 -15
16 -15 21 0 5 7 6 15 3 8 -4 15 -13 15 -21z m-162 -34 c-3 -8 -7 -3 -11 10 -4
17 -3 21 5 13 5 -5 8 -16 6 -23z m96 2 c16 -9 31 -22 34 -29 10 -30 -70 3 -82
34 -7 18 12 17 48 -5z m-43 -42 c10 -10 33 -19 50 -19 38 0 69 -16 69 -35 0
-24 -43 -46 -78 -39 -37 8 -102 65 -102 91 0 26 36 27 61 2z m1597 -559 c-7
-11 -15 -15 -17 -9 -2 6 3 15 10 20 20 12 21 11 7 -11z m-808 -112 c0 -23 -61
-76 -81 -71 -25 7 -21 36 6 42 11 2 26 12 33 22 15 21 42 26 42 7z m-1005 -18
c-3 -5 -14 -10 -23 -10 -15 0 -15 2 -2 10 20 13 33 13 25 0z m1985 -35 c-13
-14 -26 -23 -28 -20 -3 3 5 16 18 30 13 14 26 23 28 20 3 -3 -5 -16 -18 -30z
m-1509 -142 c99 -142 205 -184 385 -154 64 11 196 56 263 91 45 23 75 26 69 8
-3 -7 -15 -43 -27 -79 -18 -55 -31 -75 -85 -126 -82 -77 -91 -105 -127 -363
-10 -76 -11 -185 -3 -218 9 -31 51 -46 169 -62 55 -7 145 -22 200 -32 55 -11
127 -22 160 -25 136 -10 195 -44 246 -145 57 -111 81 -184 86 -258 4 -68 2
-78 -20 -104 -21 -26 -27 -28 -68 -22 -37 5 -56 18 -111 70 -71 68 -118 90
-213 102 -27 4 -58 11 -68 16 -34 17 -179 58 -261 73 -45 8 -112 21 -151 30
-74 16 -78 17 -195 35 -96 15 -112 19 -105 31 4 5 -8 9 -24 9 -17 0 -31 5 -31
10 0 6 -6 10 -13 10 -21 0 -72 28 -92 50 -15 17 -16 23 -5 52 7 18 19 40 26
48 27 32 7 56 -64 73 -58 13 -69 14 -83 1 -21 -19 -38 -18 -46 4 -9 25 -86
132 -94 132 -16 0 -18 -18 -4 -30 8 -7 15 -16 15 -21 0 -4 14 -31 32 -58 29
-47 30 -54 20 -89 -16 -54 -68 -122 -92 -122 -33 0 -125 -39 -190 -81 -34 -21
-82 -44 -108 -51 -26 -6 -71 -22 -101 -36 -30 -14 -63 -25 -75 -24 -27 2 -82
-41 -101 -79 -19 -36 -41 -38 -49 -4 -4 15 -16 27 -31 31 -14 3 -25 10 -25 15
0 20 -44 7 -70 -21 -28 -30 -49 -35 -117 -31 -45 3 -125 34 -134 51 -12 24
-23 54 -24 67 0 7 -9 19 -20 27 -17 14 -18 17 -5 26 8 6 32 8 52 5 l37 -5 36
76 c20 42 34 78 30 82 -7 8 -62 -23 -100 -58 -16 -14 -43 -35 -59 -45 -27 -16
-121 -111 -194 -195 -106 -122 -94 -113 -127 -98 -47 20 -94 70 -101 106 -6
28 -4 32 15 32 12 0 25 8 28 18 4 9 20 34 37 55 35 44 67 48 99 14 13 -14 39
-27 65 -31 38 -6 45 -3 68 21 14 16 39 42 55 59 16 16 29 32 29 35 0 3 -19 12
-42 19 -24 7 -45 15 -48 19 -3 3 -32 17 -65 31 -46 18 -79 24 -144 24 l-85 1
-10 33 c-12 42 7 79 43 86 25 5 183 -7 263 -20 31 -5 41 -2 60 19 39 41 78 91
78 99 0 13 -71 9 -130 -8 -30 -8 -66 -17 -80 -20 -57 -11 -227 -68 -250 -84
-14 -10 -44 -27 -67 -39 -25 -12 -49 -34 -59 -53 -23 -44 -82 -98 -108 -98
-67 0 -89 76 -36 123 16 15 34 27 39 27 5 0 25 22 43 49 39 59 169 171 198
171 11 0 20 6 20 13 0 6 18 19 40 29 38 16 40 15 84 -8 62 -33 120 -32 142 1
9 14 23 25 30 25 29 0 12 16 -46 43 -33 15 -64 27 -69 27 -5 0 -14 14 -20 31
-9 27 -8 34 7 45 24 19 41 22 128 25 68 1 102 -20 110 -71 l6 -38 182 0 c111
-1 173 3 161 8 -11 5 -29 9 -41 9 -30 1 -57 35 -49 61 4 11 25 32 48 47 l41
26 42 -22 c37 -20 42 -28 53 -77 16 -69 35 -78 146 -71 130 9 430 -10 467 -29
34 -18 32 -19 72 41 11 17 16 18 29 7 9 -8 24 -12 34 -11 16 3 47 -3 94 -17
17 -5 17 -3 -25 216 -41 207 -45 239 -46 307 0 73 10 94 35 73 10 -8 16 -7 27
8 7 10 21 21 31 25 11 4 17 17 17 35 0 40 14 49 21 14 3 -16 12 -38 20 -49z
m-1661 -528 c10 -13 9 -23 -5 -58 -25 -57 -28 -59 -51 -42 -12 9 -15 18 -9 22
6 5 11 20 12 36 2 56 26 75 53 42z m1759 -760 c92 -37 276 -122 290 -132 3 -2
-14 -22 -36 -46 -23 -23 -55 -65 -72 -93 -40 -66 -91 -190 -91 -221 0 -13 -5
-34 -12 -46 -6 -12 -13 -64 -14 -115 -1 -52 -5 -96 -8 -100 -3 -3 -6 -42 -7
-86 -1 -77 -1 -79 -14 -51 -17 35 -19 85 -5 85 16 0 12 26 -10 65 -11 19 -17
35 -13 35 4 0 -10 17 -31 39 -31 32 -39 48 -42 87 -3 27 -9 63 -14 79 -23 74
-60 511 -45 535 9 14 3 15 124 -35z m-1477 -178 c7 -7 21 -16 31 -20 25 -9 21
-21 -18 -56 -38 -33 -63 -39 -83 -19 -19 19 -14 46 13 70 13 11 22 25 19 30
-8 13 23 9 38 -5z m-492 -17 c0 -5 -4 -10 -10 -10 -5 0 -10 5 -10 10 0 6 5 10
10 10 6 0 10 -4 10 -10z m95 -31 c14 -18 24 -38 21 -46 -4 -8 -6 -21 -6 -29 0
-25 -47 -28 -85 -4 -40 25 -47 61 -17 91 26 27 57 23 87 -12z m713 2 c26 -22
28 -41 7 -81 -18 -36 -20 -36 -78 -10 -60 27 -64 36 -33 65 14 13 26 29 26 35
0 17 53 11 78 -9z m-514 -134 c17 -13 17 -15 2 -45 -9 -17 -13 -39 -9 -48 5
-13 3 -15 -8 -8 -8 4 -23 10 -33 11 -20 4 -45 30 -46 50 0 14 47 53 64 53 7 0
20 -6 30 -13z m562 -117 c36 -75 37 -81 8 -70 -42 16 -68 32 -81 49 -10 14
-15 14 -43 -7 l-31 -23 7 28 c9 36 32 83 52 106 15 17 17 17 42 -10 14 -16 35
-49 46 -73z m-174 55 c6 -28 4 -29 -23 -14 -16 8 -18 13 -8 25 17 20 26 17 31
-11z m300 -157 c-6 -6 -16 -8 -22 -6 -9 3 -7 9 6 22 13 13 19 15 22 6 2 -6 0
-16 -6 -22z m38 -374 c0 -8 -4 -12 -10 -9 -5 3 -10 10 -10 16 0 5 5 9 10 9 6
0 10 -7 10 -16z m977 3 c13 0 28 -101 17 -118 -7 -12 -74 -5 -104 11 -10 5
-21 26 -25 47 -6 32 -3 40 16 56 16 13 31 16 53 11 17 -4 36 -7 43 -7z m-782
-67 c22 -11 34 -19 27 -20 -7 0 -23 5 -35 12 -12 6 -35 15 -52 19 -27 6 -28 7
-5 8 14 0 43 -8 65 -19z m72 -36 c-3 -3 -12 -4 -19 -1 -8 3 -5 6 6 6 11 1 17
-2 13 -5z m63 -14 c0 -23 -4 -24 -32 -9 -17 9 -18 13 -7 20 23 15 39 10 39
-11z"/>
<path d="M2442 2635 c-12 -14 -22 -28 -22 -31 0 -4 -12 -17 -27 -29 -24 -22
-25 -26 -13 -54 7 -17 16 -31 21 -31 12 0 57 95 65 137 7 40 4 41 -24 8z"/>
<path d="M3988 6630 c-2 -275 0 -500 4 -500 4 0 5 -7 2 -15 -4 -9 -1 -15 7
-15 12 0 14 87 11 515 -1 322 -6 515 -12 515 -6 0 -11 -188 -12 -500z"/>
<path d="M4568 5763 c6 -2 18 -2 25 0 6 3 1 5 -13 5 -14 0 -19 -2 -12 -5z"/>
<path d="M4398 4973 c7 -3 16 -2 19 1 4 3 -2 6 -13 5 -11 0 -14 -3 -6 -6z"/>
<path d="M4045 4890 c-3 -5 -1 -10 4 -10 6 0 11 5 11 10 0 6 -2 10 -4 10 -3 0
-8 -4 -11 -10z"/>
<path d="M3992 4835 c-13 -25 10 -67 59 -105 36 -29 45 -58 14 -46 -7 2 -18
-6 -25 -20 -9 -16 -22 -24 -40 -24 -35 0 -90 -19 -112 -38 -39 -33 -12 -83 48
-86 43 -3 98 -24 129 -51 11 -9 14 -13 6 -9 -9 5 -12 3 -7 -5 15 -24 82 -58
124 -64 39 -5 46 -2 78 29 52 53 46 64 -33 64 -50 0 -81 6 -118 24 l-50 23 63
7 c78 10 183 -2 197 -21 10 -13 17 -12 53 7 36 19 42 27 42 54 0 25 -11 42
-50 81 -27 27 -50 55 -50 62 0 8 11 19 25 25 14 6 25 17 25 25 0 15 -23 17
-48 4 -12 -6 -34 -1 -71 16 -44 20 -66 24 -110 21 -30 -3 -57 -10 -59 -16 -7
-22 -31 -12 -56 24 -21 31 -25 34 -34 19z m284 -114 c-29 -19 -46 -19 -46 -1
0 8 24 15 60 19 8 0 2 -8 -14 -18z m-18 -105 c32 -2 27 -16 -5 -16 -16 0 -37
8 -48 17 -19 15 -19 15 5 8 14 -4 35 -8 48 -9z m100 -18 c7 -7 12 -19 12 -27
0 -11 -4 -10 -20 4 -21 19 -26 35 -12 35 4 0 13 -5 20 -12z m-298 -7 c0 -10
-24 -21 -48 -21 -13 0 -12 3 4 15 21 16 44 19 44 6z"/>
<path d="M4982 4202 c-12 -2 -27 -12 -32 -22 -12 -22 6 -30 55 -25 17 2 49 4
72 4 33 1 41 4 37 16 -4 10 -15 12 -35 8 -17 -3 -29 -1 -29 5 0 11 -35 19 -68
14z"/>
</g>
</svg>
